<?xml version="1.0" standalone="no"?>
<!DOCTYPE svg PUBLIC "-//W3C//DTD SVG 20010904//EN"
 "http://www.w3.org/TR/2001/REC-SVG-20010904/DTD/svg10.dtd">
<svg version="1.0" xmlns="http://www.w3.org/2000/svg"
 width="792.000000pt" height="574.000000pt" viewBox="0 0 792.000000 574.000000"
 preserveAspectRatio="xMidYMid meet">
<metadata>
Created by potrace 1.16, written by Peter Selinger 2001-2019
</metadata>
<g transform="translate(0.000000,574.000000) scale(0.100000,-0.100000)"
fill="#000000" stroke="none">
<path d="M0 2870 l0 -2870 3960 0 3960 0 0 2870 0 2870 -2422 0 -2422 0 -40
-32 c-22 -17 -36 -27 -33 -21 4 7 3 14 -3 18 -15 9 -24 -23 -10 -39 9 -12 7
-17 -9 -25 -30 -17 -43 -13 -36 9 5 17 2 20 -27 21 -18 1 -43 0 -55 -1 -13 -1
-23 2 -23 7 0 5 -12 16 -27 25 -29 16 -53 14 -53 -4 0 -5 -7 -16 -15 -24 -8
-9 -15 -11 -15 -5 0 6 -7 11 -15 11 -8 0 -15 -7 -15 -15 0 -10 -10 -15 -34
-15 -73 0 -143 -53 -114 -87 10 -13 9 -15 -6 -12 -22 4 -60 65 -50 80 10 17
-18 41 -42 35 -16 -4 -23 -1 -27 14 -3 12 -14 20 -26 20 -11 0 -26 9 -33 20
-11 17 -24 20 -90 20 -50 0 -78 -4 -78 -11 0 -6 9 -13 19 -16 30 -8 25 -62 -6
-69 -12 -4 -23 -10 -23 -16 0 -5 4 -7 9 -4 4 3 21 1 37 -4 104 -32 112 -33
137 -17 22 14 27 14 54 -3 41 -24 47 -37 23 -43 -18 -5 -19 -7 -6 -39 10 -23
22 -34 40 -36 24 -3 38 -22 16 -22 -5 0 -10 -9 -10 -21 0 -22 -14 -22 -66 -2
-13 5 -16 3 -11 -10 5 -13 0 -17 -21 -17 l-27 0 30 -24 c25 -20 27 -26 14 -31
-9 -3 -22 -5 -30 -3 -10 2 -13 -6 -11 -29 3 -32 -11 -45 -22 -20 -3 6 -3 0 0
-14 8 -40 -12 -43 -30 -5 -9 19 -22 37 -29 39 -6 3 0 6 16 6 29 1 34 10 16 28
-20 20 -1 62 36 80 24 12 32 20 25 28 -13 16 -2 25 34 26 24 1 26 3 9 6 -26 5
-29 13 -11 31 20 20 -12 35 -33 16 -14 -13 -20 -13 -39 -2 -18 11 -22 11 -31
-4 -6 -11 -22 -18 -40 -18 -26 0 -29 -3 -23 -24 5 -22 2 -25 -33 -31 -21 -4
-46 -9 -55 -12 -21 -5 -26 32 -5 40 10 4 10 7 0 18 -7 7 -13 21 -13 31 0 11
-5 15 -15 12 -20 -8 -19 5 3 29 16 19 16 20 -5 34 -34 22 -31 29 36 98 l24 25
-1092 0 -1091 0 0 -2870z m3820 2182 c0 -16 -36 -42 -68 -48 -17 -3 -33 -13
-37 -21 -4 -11 0 -14 14 -10 16 4 20 0 19 -27 0 -17 -7 -39 -16 -48 -8 -10
-12 -26 -10 -36 8 -28 -10 -52 -36 -52 -30 0 -42 -47 -22 -85 12 -22 15 -23
26 -10 7 8 19 15 26 15 8 0 14 5 14 10 0 6 9 10 21 10 15 0 19 -5 15 -17 -19
-65 -19 -74 3 -80 11 -3 21 -9 21 -14 0 -16 38 -10 44 7 3 9 6 30 6 47 1 30
19 67 33 67 4 0 6 -10 4 -22 -1 -15 3 -23 13 -23 8 0 14 6 12 14 -4 18 18 32
40 25 9 -2 19 0 23 6 8 13 62 13 70 1 3 -6 -4 -15 -15 -21 -27 -15 -25 -34 5
-48 31 -14 41 -37 25 -57 -11 -13 -7 -15 22 -15 19 0 39 5 44 10 11 11 44 3
44 -10 0 -5 -10 -12 -21 -15 -15 -5 -18 -10 -10 -15 7 -4 32 0 56 9 35 12 47
13 57 3 9 -9 8 -12 -5 -12 -29 0 -19 -18 18 -30 19 -6 33 -16 30 -21 -10 -15
-62 -10 -69 6 -3 8 -13 15 -23 15 -15 0 -16 -2 -3 -10 8 -5 11 -12 7 -17 -4
-4 -16 -2 -26 4 -20 12 -61 7 -61 -8 0 -5 7 -9 15 -9 8 0 15 -5 15 -11 0 -6
-7 -9 -15 -5 -18 6 -45 -2 -45 -15 0 -5 9 -9 20 -9 12 0 24 -9 29 -23 5 -12
21 -29 35 -36 14 -8 26 -21 26 -28 0 -10 10 -13 33 -11 39 4 53 -16 14 -20
-18 -2 -27 -8 -24 -16 4 -9 -2 -11 -18 -8 -26 5 -44 -16 -24 -29 8 -5 26 -9
42 -9 31 0 35 -14 10 -29 -13 -7 -14 -10 -4 -11 18 0 -56 -50 -74 -50 -8 0
-15 -4 -15 -10 0 -5 11 -10 25 -10 20 0 25 -6 31 -35 5 -30 10 -35 33 -35 15
0 36 -6 47 -14 17 -13 18 -18 7 -47 -10 -26 -10 -35 0 -41 9 -6 9 -8 0 -8 -6
0 -15 5 -18 10 -3 6 -14 10 -23 10 -9 0 -26 7 -37 16 -18 13 -17 14 13 8 25
-5 31 -4 27 7 -3 8 -14 20 -24 26 -24 15 -91 -1 -91 -22 0 -8 -9 -15 -20 -15
-15 0 -20 -7 -20 -25 0 -18 5 -25 19 -25 11 0 26 -7 35 -15 18 -18 49 -19 75
-3 14 9 26 9 48 -1 34 -14 41 -47 11 -54 -24 -7 -20 -28 8 -42 54 -28 83 -82
54 -100 -6 -4 -7 -12 -3 -18 13 -22 12 -56 -2 -51 -7 3 -16 1 -20 -5 -3 -6 -1
-11 4 -11 6 0 11 -4 11 -10 0 -5 -7 -10 -15 -10 -8 0 -15 5 -15 10 0 6 -11 10
-25 10 -27 0 -34 -17 -11 -26 9 -3 13 -23 13 -61 0 -35 5 -58 13 -63 8 -5 44
-6 81 -3 84 7 139 -14 139 -52 0 -19 -5 -25 -20 -25 -18 0 -20 -4 -15 -34 5
-25 3 -35 -9 -39 -9 -4 -16 -13 -16 -20 0 -22 -54 -39 -125 -40 -36 0 -65 -4
-65 -8 0 -3 12 -18 26 -33 20 -19 23 -26 11 -26 -26 0 -47 12 -47 26 0 11 -4
12 -19 4 -11 -5 -29 -10 -40 -10 -22 0 -28 -14 -11 -25 17 -10 11 -25 -9 -25
-11 0 -32 -13 -48 -30 -33 -35 -40 -36 -66 -12 -19 16 -19 16 -12 -7 8 -26
-11 -46 -30 -31 -5 4 -22 6 -37 3 l-27 -5 20 -21 c26 -29 12 -32 -35 -7 -41
20 -56 19 -56 -6 0 -24 -27 -16 -53 16 -14 17 -30 30 -36 30 -6 0 -8 6 -5 14
5 14 -50 46 -80 46 -10 0 -16 9 -16 24 0 27 -15 42 -25 27 -3 -6 -12 -8 -20
-4 -9 3 -21 0 -29 -6 -18 -15 -99 -18 -128 -4 -12 6 -31 14 -40 17 -10 3 -18
15 -18 27 0 12 -8 23 -20 26 -11 3 -20 11 -20 17 0 14 -66 40 -80 31 -5 -3
-10 -16 -11 -28 0 -12 -3 -16 -6 -9 -2 6 -14 12 -24 12 -11 0 -17 -4 -14 -10
3 -5 0 -7 -9 -4 -8 3 -18 19 -21 35 -7 29 -35 41 -35 14 0 -7 -8 -19 -17 -24
-10 -6 -12 -11 -5 -11 25 0 11 -36 -24 -59 l-35 -24 -22 22 c-22 22 -22 22 -3
37 19 14 19 14 -3 14 -12 0 -19 4 -16 10 3 6 3 16 -2 22 -4 7 -7 21 -8 32 0
29 -30 44 -56 28 -19 -12 -20 -12 -13 10 7 21 8 77 2 83 -2 1 -25 6 -52 10
-44 6 -48 5 -37 -8 10 -12 9 -17 -2 -24 -8 -4 -19 -18 -26 -30 -15 -30 -27
-29 -56 3 -32 35 -31 49 3 63 15 6 38 21 52 31 21 17 23 21 10 30 -8 5 -23 7
-33 4 -25 -8 -64 30 -72 68 -9 41 7 56 39 35 14 -9 28 -13 31 -8 7 13 -4 19
-67 38 -50 15 -53 14 -69 -6 -22 -27 -64 -30 -50 -3 10 19 10 77 -1 87 -4 4
-13 -2 -20 -14 -15 -25 -28 -27 -28 -6 0 8 6 15 14 15 8 0 16 6 19 13 3 7 19
12 39 12 29 -1 37 3 47 27 7 15 23 31 36 34 24 6 39 29 29 45 -3 5 0 9 6 9 7
0 27 7 45 16 32 15 36 14 66 -3 18 -10 41 -26 51 -35 22 -22 42 -23 57 -4 7 8
27 17 45 20 19 4 37 13 40 21 3 8 12 15 20 15 7 0 16 7 20 15 9 25 38 18 34
-7 -2 -19 2 -24 28 -26 19 -2 38 3 47 12 9 9 24 16 34 16 20 0 43 18 43 33 0
5 -9 7 -20 4 -16 -4 -18 -2 -10 12 5 10 16 23 24 30 12 10 13 18 5 32 -11 21
-39 26 -39 7 0 -6 -7 -3 -15 8 -8 10 -15 14 -15 7 0 -6 -14 -14 -31 -18 -27
-6 -54 -41 -46 -63 5 -16 -18 -13 -28 4 -5 10 -18 24 -27 31 -18 14 -15 33 16
106 17 38 17 38 -11 60 -49 39 -66 44 -129 37 -79 -9 -114 -6 -124 10 -6 11
-16 10 -50 -4 -39 -15 -44 -15 -67 -1 -29 19 -26 37 8 45 17 4 26 15 29 35 4
20 8 26 13 18 5 -7 15 -13 23 -13 8 0 13 4 10 9 -4 5 3 7 14 4 26 -7 26 9 0
25 -11 7 -20 21 -20 31 0 11 -9 21 -22 25 -18 4 -20 8 -10 18 18 18 15 38 -7
38 -13 0 -20 9 -24 33 -7 44 12 57 80 53 40 -2 56 1 62 13 7 11 26 16 68 17
66 1 113 24 113 55 0 23 17 34 34 20 10 -8 19 -6 37 7 13 11 29 17 36 15 6 -2
14 10 18 26 7 35 16 38 35 15 19 -22 16 -72 -6 -94 -38 -38 -44 -50 -39 -73 4
-15 1 -28 -9 -36 -12 -10 -17 -9 -27 7 -7 12 -19 17 -31 14 -30 -7 -21 -20 35
-46 45 -22 53 -24 63 -11 6 8 16 15 22 15 5 0 12 7 16 15 3 8 15 15 26 15 13
0 20 7 20 20 0 11 7 20 15 20 8 0 15 6 15 14 0 7 11 21 25 30 14 9 25 22 25
30 0 7 12 27 28 43 15 17 40 47 55 67 22 27 34 35 50 31 24 -6 56 10 44 21 -4
4 -13 2 -19 -4 -7 -7 -16 -12 -20 -12 -11 0 14 53 32 66 39 30 76 72 72 82 -2
7 2 10 11 6 8 -3 44 8 78 25 66 31 89 37 89 23z m2552 -668 c10 -4 27 -22 39
-41 22 -35 21 -55 -1 -28 -20 25 -29 17 -17 -15 8 -22 8 -38 -1 -63 -17 -47
-3 -119 26 -132 33 -15 27 -30 -14 -32 -19 -1 -42 -7 -50 -14 -12 -10 -17 -8
-29 7 -19 25 -19 34 0 34 18 0 19 12 3 28 -8 8 -9 12 -1 12 6 0 17 32 23 71
14 80 7 106 -41 158 -39 43 -37 52 9 34 20 -7 45 -16 54 -19z m338 -391 c0
-42 9 -70 47 -143 47 -93 51 -118 12 -81 -25 23 -45 28 -33 9 4 -7 7 -27 6
-44 -2 -25 2 -34 18 -39 22 -7 25 -16 10 -31 -8 -8 -6 -15 5 -24 8 -7 15 -25
15 -41 0 -24 -4 -29 -24 -29 -37 0 -76 43 -76 85 0 20 -6 46 -14 58 -8 12 -17
48 -21 79 -3 32 -10 60 -15 63 -22 14 -42 75 -35 107 8 32 8 32 17 9 6 -18 11
-22 20 -13 16 16 38 81 39 117 l1 30 13 -30 c8 -16 14 -54 15 -82z"/>
</g>
</svg>
